<svg width="46" height="36" fill="none" xmlns="http://www.w3.org/2000/svg"><path d="M39.046 16.101c1.399.15 2.833.3 4.266.463 1.87.196 2.868 1.006 2.661 3.493-.436 5.38-4.932 9.162-9.772 9.475-2.225.15-4.335-.186-6.411-.857-2.225-.728-4.359-1.677-6.308-2.996-.769-.52-1.4-.566-2.18-.011-1.055.752-2.19 1.4-3.291 2.105-1.79 1.157-3.694 1.978-5.816 2.29-1.869.278-3.67.116-5.356-.763a17.366 17.366 0 01-5.975-5.113 5.06 5.06 0 01-.322-.486c-.814-1.353-.745-1.654.436-2.718 1.583-1.435 3.304-2.615 5.414-3.124.47-.115.94-.208 1.502-.324-.149-.381-.229-.67-.367-.925-1.284-2.476-1.697-5.17-1.88-7.912-.046-.648.286-.868.871-.96 3.131-.51 6.228-.695 9.199.74.137.07.286.092.435.139.035.011.07-.012.276-.035.091-.405.218-.868.298-1.342.367-2.348 1.285-4.5 2.34-6.605.355-.706.63-.764 1.525-.463 3.453 1.157 6.102 3.285 7.8 6.57.195.37.378.74.596 1.18.264-.138.482-.208.654-.335 1.927-1.504 4.129-2.476 6.4-3.308 1.09-.394 1.365-.278 1.904.775 1.628 3.18 1.926 6.524 1.17 9.983-.058.266-.115.52-.161.786-.012.047.046.128.092.278zM21.945 20.59c-.333-.556-.666-1.123-.998-1.678-.493-.821-.94-1.677-1.503-2.452-2.179-2.962-5.195-4.43-8.774-4.778-.963-.092-1.055.035-1.078 1.006a131.923 131.923 0 00-.012 3.69c.012.984.092 1.111 1.021 1.1 3.04-.047 5.873.798 8.648 1.92.918.37 1.824.775 2.73 1.168 3.315 2.036 6.779 3.737 10.61 4.477 1.57.3 3.2.313 4.77-.15 2.467-.718 4.485-3.02 4.749-5.507-.986-.323-1.984-.659-2.993-.983-1.148-.37-1.159-.37-1.893.613-1.675 2.28-3.991 3.517-6.652 4.211-.333.08-.734.312-1.136-.22 1.835-1.897 3.923-3.644 4.806-6.293.872-2.591 1.101-5.229.47-8.016-1.33.335-2.58.636-3.83.96-1.079.277-1.113.324-1.113 1.515 0 .463.023.925-.012 1.388-.114 2.117-.665 4.095-1.858 5.865-.263.394-.504.88-1.284.822v-1.123c.011-1.122.023-2.232.023-3.354 0-2.233-.666-4.246-1.962-6.039-.986-1.376-2.213-2.51-3.624-3.667-1.17 1.55-2.099 3.066-2.97 4.697.275.277.493.532.745.763 2.57 2.372 3.555 5.391 3.567 8.815 0 .474.023.949-.447 1.25zM4.454 22.255c1.25 1.169 2.35 2.302 3.704 3.1.838.498 1.79.938 2.73 1.1 1.502.266 3.04.15 4.53-.324 1.778-.567 3.579-1.065 5.368-1.597.126-.035.23-.15.425-.266-2.283-1.943-4.646-3.528-7.387-4.5-1.353-.486-2.752-.625-4.175-.486-2.087.185-3.693 1.261-5.195 2.973z" fill="url(#paint0_linear)"/><path d="M27.368 33.373c.799 1.276.605 1.889-.661 2.306-.4.122-.822.245-1.221.245a246.79 246.79 0 01-6.023-.012c-.274 0-.56-.147-.833-.368 1.038-.638 2.225-.466 3.331-.859a23.68 23.68 0 00-.935-.061l-5.567-.258c-.114 0-.228-.012-.342-.036-.913-.184-1.46-.65-1.46-1.276-.012-.589.536-1.276 1.345-1.46.89-.196 1.803-.343 2.704-.355 2.92-.037 5.852-.013 8.772-.013.799 0 1.598.013 2.396-.037.422-.024.833-.196 1.369-.343-.536-.724-1.152-.858-1.723-.994-1.813-.404-3.65-.748-5.464-1.14-.228-.05-.445-.172-.662-.479.195-.06.377-.184.57-.196 2.362-.037 4.712.086 7.005.7.57.147 1.152.453 1.62.833 1.072.896 1.004 2.355-.217 3.006-.821.441-1.79.564-2.715.772-.399.098-.798.025-1.289.025z" fill="url(#paint1_linear)"/><defs><linearGradient id="paint0_linear" x1="0" y1="0" x2="27.694" y2="42.201" gradientUnits="userSpaceOnUse"><stop stop-color="#74C0FC"/><stop offset="1" stop-color="#339AF0"/></linearGradient><linearGradient id="paint1_linear" x1="13.656" y1="28.031" x2="19.331" y2="41.443" gradientUnits="userSpaceOnUse"><stop stop-color="#74C0FC"/><stop offset="1" stop-color="#339AF0"/></linearGradient></defs></svg>