<svg width="41" height="38" fill="none" xmlns="http://www.w3.org/2000/svg"><path d="M41 1.744a1.19 1.19 0 00-1.201-1.18 1.19 1.19 0 00-1.201 1.18c0 1.279-1.137 2.359-2.483 2.359h-5.418c-3.09-1.544-6.608-2.359-10.197-2.359-3.59 0-7.108.815-10.197 2.359H4.9c-1.353 0-2.497-1.08-2.497-2.36a1.19 1.19 0 00-1.2-1.178A1.19 1.19 0 000 1.744v3.538c0 2.188.882 4.25 2.484 5.812C.856 13.706 0 16.569 0 19.434c0 9.754 9.196 17.69 20.5 17.69S41 29.188 41 19.434c0-2.86-.854-5.72-2.477-8.33C40.053 9.612 41 7.553 41 5.283V1.744zM20.5 4.103c1.914 0 3.802.258 5.6.757a10.807 10.807 0 00-5.593 4.998 10.804 10.804 0 00-5.598-5 20.943 20.943 0 015.591-.755zm0 19.579c.45.732 1.01 1.39 1.661 1.952L20.5 28.71l-1.661-3.076a8.355 8.355 0 001.661-1.952zm-7.207 1.649c-3.312 0-6.006-2.645-6.006-5.897 0-3.251 2.694-5.897 6.006-5.897 3.312 0 6.006 2.646 6.006 5.897 0 3.252-2.694 5.897-6.006 5.897zm8.408-5.897a6.5 6.5 0 01.007-.28 1.15 1.15 0 00.014-.172v-.022c.247-3.03 2.836-5.423 5.985-5.423 3.312 0 6.006 2.646 6.006 5.897 0 3.252-2.694 5.897-6.006 5.897-3.312 0-6.006-2.645-6.006-5.897zM2.426 5.806A4.967 4.967 0 004.9 6.46h5.992a8.43 8.43 0 015.95 2.423 8.137 8.137 0 012.38 4.7 8.452 8.452 0 00-5.175-2.372 1.222 1.222 0 00-.28-.033H8.503a6.21 6.21 0 01-3.525-1.087 1.187 1.187 0 00-.396-.296c-1.202-.976-2.01-2.393-2.156-3.99zm36.172 13.628c0 8.454-8.119 15.331-18.098 15.331-9.98 0-18.098-6.877-18.098-15.33 0-2.36.694-4.732 2.015-6.921a8.568 8.568 0 003.06.963c-1.596 1.504-2.592 3.618-2.592 5.957 0 4.552 3.772 8.255 8.408 8.255a8.49 8.49 0 003.526-.761l2.62 4.852c.208.386.616.627 1.061.627.445 0 .853-.241 1.061-.627l2.62-4.852a8.49 8.49 0 003.526.761c4.636 0 8.408-3.703 8.408-8.255 0-2.338-.995-4.452-2.591-5.956a8.593 8.593 0 003.064-.957c1.318 2.188 2.01 4.556 2.01 6.913zm-2.2-9.619a1.196 1.196 0 00-.357.266 6.184 6.184 0 01-3.53 1.098h-5.263c-.093 0-.184.011-.272.031a8.452 8.452 0 00-5.18 2.358 8.138 8.138 0 012.378-4.684 8.431 8.431 0 015.95-2.423h5.991c.873 0 1.716-.226 2.458-.649-.148 1.606-.963 3.027-2.174 4.003z" fill="#7653FC"/><path d="M13.5 16.683l1.01 2.591h3.27l-2.645 1.602 1.01 2.59-2.645-1.6-2.645 1.6 1.01-2.59-2.645-1.602h3.27l1.01-2.59zm14 0l1.01 2.591h3.27l-2.645 1.602 1.01 2.59-2.645-1.6-2.645 1.6 1.01-2.59-2.645-1.602h3.27l1.01-2.59z" fill="#7653FC"/></svg>