<svg xmlns="http://www.w3.org/2000/svg" viewBox="0 0 512 512" fill="#37352f"><path d="M407 0H105C47.103 0 0 47.103 0 105v302c0 57.897 47.103 105 105 105h302c57.897 0 105-47.103 105-105V105C512 47.103 464.897 0 407 0zm-15.686 369.889l-8.034 13.39c-31.242 31.242-113.553-.417-183.848-70.711-70.294-70.294-101.953-152.605-70.711-183.848l13.39-8.034c12.131-7.278 27.866-3.345 35.144 8.786l18.958 31.596c6.048 10.079 4.459 22.98-3.852 31.292-11.716 11.716-11.716 30.711 0 42.426l84.853 84.853c11.716 11.716 30.711 11.716 42.426 0a25.615 25.615 0 0131.292-3.853l31.596 18.958c12.13 7.279 16.064 23.014 8.786 35.145z"/></svg>